# xmcd
#
# Track frame offsets: 
#        150
#        24995
#        40872
#        59567
#        83922
#        104210
#        123842
#        145637
#        164217
#        181307
#        211637
#        252275
#        285152
#
# Disc length: 4070 seconds
#
# Revision: 5
# Processed by: cddbd v1.5.2PL0 Copyright (c) Steve Scherf et al.
# Submitted via: ExactAudioCopyFreeDBPlugin 1.0
#
DISCID=b30fe40d
DTITLE=John Lee Hooker - Live At The Café Au Go-Go (And Soledad Prison
DTITLE=) [Re-Issue]
DYEAR=1996
DGENRE=Blues
TTITLE0=I'm Bad Like Jesse James
TTITLE1=She's Long, She's Tall (She Weeps Like A Willow Tree)
TTITLE2=When My First Wife Left Me
TTITLE3=Heartaches And Misery
TTITLE4=One Bourbon, One Scotch And One Beer
TTITLE5=I Don't Want No Trouble
TTITLE6=I'll Never Get Out Of These Blues Alive
TTITLE7=Seven Days
TTITLE8=What's The Matter Baby
TTITLE9=Lucille
TTITLE10=Boogie Everywhere I Go
TTITLE11=Serve Me Right To Suffer
TTITLE12=Bang Bang Bang Bang
EXTD=YEAR: 1996
EXTT0=
EXTT1=
EXTT2=
EXTT3=
EXTT4=
EXTT5=
EXTT6=
EXTT7=
EXTT8=
EXTT9=
EXTT10=
EXTT11=
EXTT12=
PLAYORDER=
